<svg xmlns="http://www.w3.org/2000/svg" xmlns:xlink="http://www.w3.org/1999/xlink" version="1.1" x="0px" y="0px" viewBox="0 0 32 32" enable-background="new 0 0 32 32" xml:space="preserve" style="max-width:100%" height="20"><g display="none" style="" fill="currentColor"><rect x="-69.333" y="-18.667" display="inline" fill="currentColor" width="473.333" height="236" style=""></rect></g><g display="none" style="" fill="currentColor"><g display="inline" style="" fill="currentColor"><g style="" fill="currentColor"><polygon fill="currentColor" points="32,15.976 15.976,32 0,16.024    " style=""></polygon></g><g style="" fill="currentColor"><polygon points="23.347,15.989 15.989,23.347 8.653,16.011    " style="" fill="currentColor"></polygon></g><g style="" fill="currentColor"><polygon fill="currentColor" points="0,16.024 16.024,0 32,15.976    " style=""></polygon></g><g style="" fill="currentColor"><polygon fill="currentColor" points="8.653,16.011 16.011,8.653 23.347,15.989    " style=""></polygon></g></g></g><g display="none" style="" fill="currentColor"><g display="inline" style="" fill="currentColor"><path fill="currentColor" d="M16,1c8.271,0,15,6.729,15,15s-6.729,15-15,15S1,24.271,1,16S7.729,1,16,1 M16,0C7.163,0,0,7.163,0,16    s7.163,16,16,16s16-7.163,16-16S24.837,0,16,0L16,0z" style=""></path></g><g display="inline" style="" fill="currentColor"><path fill="currentColor" d="M13.034,6.153l2.259,2.259L16,9.119l0.707-0.707l2.259-2.259l0.744,0.744l-2.259,2.259l-0.707,0.707    l0.707,0.707l2.259,2.259l-0.744,0.744l-2.259-2.259L16,10.607l-0.707,0.707l-2.259,2.259l-0.744-0.744l2.259-2.259l0.707-0.707    l-0.707-0.707L12.29,6.897L13.034,6.153 M18.966,4.738L16,7.705l-2.966-2.966l-2.158,2.158l2.966,2.966l-2.966,2.966l2.158,2.158    L16,12.021l2.966,2.966l2.158-2.158l-2.966-2.966l2.966-2.966L18.966,4.738L18.966,4.738z" style=""></path></g><g display="inline" style="" fill="currentColor"><path fill="currentColor" d="M13.034,18.427l2.259,2.259L16,21.393l0.707-0.707l2.259-2.259l0.744,0.744l-2.259,2.259l-0.707,0.707    l0.707,0.707l2.259,2.259l-0.744,0.744l-2.259-2.259L16,22.881l-0.707,0.707l-2.259,2.259l-0.744-0.744l2.259-2.259l0.707-0.707    l-0.707-0.707l-2.259-2.259L13.034,18.427 M18.966,17.013L16,19.979l-2.966-2.966l-2.158,2.158l2.966,2.966l-2.966,2.966    l2.158,2.158L16,24.295l2.966,2.966l2.158-2.158l-2.966-2.966l2.966-2.966L18.966,17.013L18.966,17.013z" style=""></path></g></g><g display="none" style="" fill="currentColor"><g display="inline" style="" fill="currentColor"><rect x="2" y="2" fill="currentColor" width="28" height="28" style=""></rect></g><g display="inline" style="" fill="currentColor"><g style="" fill="currentColor"><path fill="currentColor" d="M16,31.5C7.453,31.5,0.5,24.547,0.5,16S7.453,0.5,16,0.5S31.5,7.453,31.5,16S24.547,31.5,16,31.5z" style=""></path></g><g style="" fill="currentColor"><g style="" fill="currentColor"><path d="M16,1c8.271,0,15,6.729,15,15s-6.729,15-15,15S1,24.271,1,16S7.729,1,16,1 M16,0C7.163,0,0,7.163,0,16s7.163,16,16,16      s16-7.163,16-16S24.837,0,16,0L16,0z" style="" fill="currentColor"></path></g></g></g><g display="inline" style="" fill="currentColor"><g style="" fill="currentColor"><polygon fill="currentColor" points="16,11.314 13.034,14.28 11.582,12.829 14.549,9.863 11.582,6.896 13.034,5.445 16,8.412      18.966,5.445 20.418,6.896 17.451,9.863 20.418,12.829 18.966,14.28    " style=""></polygon></g><g style="" fill="currentColor"><path d="M13.034,6.153l2.259,2.259L16,9.119l0.707-0.707l2.259-2.259l0.744,0.744l-2.259,2.259l-0.707,0.707l0.707,0.707     l2.259,2.259l-0.744,0.744l-2.259-2.259L16,10.607l-0.707,0.707l-2.259,2.259l-0.744-0.744l2.259-2.259l0.707-0.707l-0.707-0.707     L12.29,6.897L13.034,6.153 M18.966,4.738L16,7.705l-2.966-2.966l-2.158,2.158l2.966,2.966l-2.966,2.966l2.158,2.158L16,12.021     l2.966,2.966l2.158-2.158l-2.966-2.966l2.966-2.966L18.966,4.738L18.966,4.738z" style="" fill="currentColor"></path></g></g><g display="inline" style="" fill="currentColor"><g style="" fill="currentColor"><polygon fill="currentColor" points="16,23.589 13.034,26.555 11.582,25.104 14.549,22.137 11.582,19.171 13.034,17.72 16,20.686      18.966,17.72 20.418,19.171 17.451,22.137 20.418,25.104 18.966,26.555    " style=""></polygon></g><g style="" fill="currentColor"><path d="M13.034,18.427l2.259,2.259L16,21.393l0.707-0.707l2.259-2.259l0.744,0.744l-2.259,2.259l-0.707,0.707l0.707,0.707     l2.259,2.259l-0.744,0.744l-2.259-2.259L16,22.881l-0.707,0.707l-2.259,2.259l-0.744-0.744l2.259-2.259l0.707-0.707l-0.707-0.707     l-2.259-2.259L13.034,18.427 M18.966,17.013L16,19.979l-2.966-2.966l-2.158,2.158l2.966,2.966l-2.966,2.966l2.158,2.158     L16,24.295l2.966,2.966l2.158-2.158l-2.966-2.966l2.966-2.966L18.966,17.013L18.966,17.013z" style="" fill="currentColor"></path></g></g></g><g style="" fill="currentColor"><g style="" fill="currentColor"><path d="M0,16.024L15.976,32L32,15.976L16.024,0L0,16.024z M15.989,23.347l-7.336-7.336l14.694-0.022L15.989,23.347z" style="" fill="currentColor"></path></g></g></svg>