<svg width="1929" height="193" viewBox="0 0 1929 193" fill="none" xmlns="http://www.w3.org/2000/svg">
<mask id="path-1-outside-1_2_3" maskUnits="userSpaceOnUse" x="0.199951" y="0.199951" width="1929" height="193" fill="black">
<rect fill="white" x="0.199951" y="0.199951" width="1929" height="193"/>
<path d="M5.19995 150V12.7999H35V124.6H104.2V150H5.19995ZM168.764 152.4C157.164 152.4 147.431 150.467 139.564 146.6C131.697 142.6 125.764 136.533 121.764 128.4C117.764 120.267 115.764 109.933 115.764 97.4C115.764 84.7333 117.764 74.4 121.764 66.4C125.764 58.2666 131.631 52.2666 139.364 48.4C147.231 44.4 156.831 42.3999 168.164 42.3999C178.831 42.3999 187.831 44.3333 195.164 48.2C202.497 51.9333 208.031 57.8 211.764 65.8C215.497 73.6666 217.364 83.8666 217.364 96.4V103.6H143.964C144.231 109.733 145.164 114.933 146.764 119.2C148.497 123.467 151.097 126.667 154.564 128.8C158.164 130.8 162.897 131.8 168.764 131.8C171.964 131.8 174.831 131.4 177.364 130.6C180.031 129.8 182.297 128.6 184.164 127C186.031 125.4 187.497 123.4 188.564 121C189.631 118.6 190.164 115.867 190.164 112.8H217.364C217.364 119.467 216.164 125.267 213.764 130.2C211.364 135.133 208.031 139.267 203.764 142.6C199.497 145.8 194.364 148.267 188.364 150C182.497 151.6 175.964 152.4 168.764 152.4ZM144.364 86H188.764C188.764 82 188.231 78.5333 187.164 75.6C186.231 72.6666 184.897 70.2666 183.164 68.4C181.431 66.5333 179.297 65.2 176.764 64.4C174.364 63.4666 171.631 63 168.564 63C163.497 63 159.231 63.8666 155.764 65.6C152.431 67.2 149.831 69.7333 147.964 73.2C146.231 76.5333 145.031 80.8 144.364 86ZM269.161 152.4C262.494 152.4 257.094 151.2 252.961 148.8C248.828 146.4 245.828 143.2 243.961 139.2C242.094 135.067 241.161 130.533 241.161 125.6V66.2H228.161V44.8H242.161L247.361 14.7999H268.961V44.8H288.161V66.2H268.961V121C268.961 124.2 269.694 126.667 271.161 128.4C272.628 130 275.028 130.8 278.361 130.8H288.161V149.2C286.561 149.733 284.694 150.2 282.561 150.6C280.428 151.133 278.161 151.533 275.761 151.8C273.361 152.2 271.161 152.4 269.161 152.4ZM310.12 69L305.52 42.2V12.7999H332.72V42.2L326.92 69H310.12ZM399.306 152.4C391.973 152.4 385.373 151.6 379.506 150C373.64 148.4 368.64 146.2 364.506 143.4C360.373 140.467 357.173 137 354.906 133C352.773 129 351.706 124.467 351.706 119.4C351.706 118.867 351.706 118.333 351.706 117.8C351.706 117.267 351.773 116.867 351.906 116.6H378.706C378.706 116.867 378.706 117.133 378.706 117.4C378.706 117.667 378.706 117.933 378.706 118.2C378.84 121.533 379.906 124.267 381.906 126.4C383.906 128.4 386.506 129.867 389.706 130.8C393.04 131.733 396.506 132.2 400.106 132.2C403.306 132.2 406.373 131.933 409.306 131.4C412.373 130.733 414.906 129.6 416.906 128C419.04 126.4 420.106 124.333 420.106 121.8C420.106 118.6 418.773 116.133 416.106 114.4C413.573 112.667 410.173 111.267 405.906 110.2C401.773 109.133 397.24 107.933 392.306 106.6C387.773 105.533 383.24 104.333 378.706 103C374.173 101.533 370.04 99.6666 366.306 97.4C362.706 95.1333 359.773 92.2 357.506 88.6C355.24 84.8666 354.106 80.2 354.106 74.6C354.106 69.1333 355.306 64.4 357.706 60.4C360.106 56.2666 363.373 52.8666 367.506 50.2C371.773 47.5333 376.706 45.6 382.306 44.4C388.04 43.0666 394.173 42.3999 400.706 42.3999C406.84 42.3999 412.573 43.0666 417.906 44.4C423.24 45.6 427.906 47.4666 431.906 50C435.906 52.4 439.04 55.4666 441.306 59.2C443.573 62.8 444.706 66.8666 444.706 71.4C444.706 72.3333 444.706 73.2 444.706 74C444.706 74.8 444.64 75.3333 444.506 75.6H417.906V74C417.906 71.6 417.173 69.6 415.706 68C414.24 66.2666 412.106 64.9333 409.306 64C406.64 63.0666 403.373 62.6 399.506 62.6C396.84 62.6 394.373 62.8 392.106 63.2C389.973 63.6 388.106 64.2 386.506 65C384.906 65.8 383.64 66.8 382.706 68C381.906 69.0666 381.506 70.4 381.506 72C381.506 74.2666 382.44 76.1333 384.306 77.6C386.306 78.9333 388.906 80.0666 392.106 81C395.306 81.9333 398.84 82.9333 402.706 84C407.506 85.3333 412.506 86.6666 417.706 88C423.04 89.2 427.973 90.8666 432.506 93C437.04 95.1333 440.706 98.2 443.506 102.2C446.306 106.067 447.706 111.333 447.706 118C447.706 124.4 446.44 129.8 443.906 134.2C441.506 138.6 438.106 142.133 433.706 144.8C429.306 147.467 424.173 149.4 418.306 150.6C412.44 151.8 406.106 152.4 399.306 152.4ZM532.097 150L496.097 12.7999H527.697L547.697 94.6C548.097 95.8 548.497 97.6 548.897 100C549.297 102.267 549.697 104.667 550.097 107.2C550.497 109.733 550.83 112 551.097 114H552.097C552.363 112.533 552.564 110.867 552.697 109C552.964 107.133 553.23 105.333 553.497 103.6C553.897 101.733 554.23 100 554.497 98.4C554.897 96.8 555.163 95.5333 555.297 94.6L573.897 12.7999H609.497L628.497 94.6C628.897 95.9333 629.297 97.7333 629.697 100C630.097 102.267 630.497 104.667 630.897 107.2C631.297 109.733 631.63 112 631.897 114H632.897C633.164 112.533 633.43 110.933 633.697 109.2C634.097 107.467 634.43 105.733 634.697 104C635.097 102.133 635.497 100.4 635.897 98.8C636.297 97.2 636.63 95.8 636.897 94.6L656.697 12.7999H685.297L649.097 150H615.097L594.897 65.6C594.497 63.7333 594.03 61.6 593.497 59.2C593.097 56.6666 592.697 54.2 592.297 51.8C591.897 49.4 591.563 47.2666 591.297 45.4H590.497C590.23 47.2666 589.897 49.4666 589.497 52C589.23 54.5333 588.83 57 588.297 59.4C587.897 61.8 587.497 63.8666 587.097 65.6L567.097 150H532.097ZM737.919 152.4C726.452 152.4 716.719 150.467 708.719 146.6C700.719 142.6 694.652 136.533 690.519 128.4C686.385 120.133 684.319 109.8 684.319 97.4C684.319 84.7333 686.385 74.4 690.519 66.4C694.652 58.2666 700.719 52.2666 708.719 48.4C716.719 44.4 726.452 42.3999 737.919 42.3999C749.652 42.3999 759.452 44.4 767.319 48.4C775.319 52.2666 781.385 58.2666 785.519 66.4C789.652 74.4 791.719 84.7333 791.719 97.4C791.719 109.8 789.652 120.133 785.519 128.4C781.385 136.533 775.319 142.6 767.319 146.6C759.452 150.467 749.652 152.4 737.919 152.4ZM737.919 130.8C744.052 130.8 748.919 129.667 752.519 127.4C756.252 125.133 758.985 121.667 760.719 117C762.452 112.333 763.319 106.6 763.319 99.8V95C763.319 88.2 762.452 82.4666 760.719 77.7999C758.985 73.1333 756.252 69.6666 752.519 67.4C748.919 65 744.052 63.8 737.919 63.8C731.919 63.8 727.052 65 723.319 67.4C719.719 69.6666 717.052 73.1333 715.319 77.7999C713.585 82.4666 712.719 88.2 712.719 95V99.8C712.719 106.6 713.585 112.333 715.319 117C717.052 121.667 719.719 125.133 723.319 127.4C727.052 129.667 731.919 130.8 737.919 130.8ZM812.175 150V44.8H835.175L837.375 61.2H838.775C840.108 57.7333 841.842 54.6 843.975 51.8C846.108 48.8666 848.775 46.5333 851.975 44.8C855.175 43.0666 858.908 42.2 863.175 42.2C865.442 42.2 867.508 42.4666 869.375 43C871.242 43.4 872.642 43.8 873.575 44.2V69.4H864.975C860.842 69.4 857.175 70 853.975 71.2C850.908 72.2666 848.308 74 846.175 76.4C844.042 78.8 842.442 81.7333 841.375 85.2C840.442 88.6666 839.975 92.7333 839.975 97.4V150H812.175ZM888.151 150V5.19995H915.952V88.6L952.752 44.8H985.352L949.352 86L987.151 150H955.352L931.151 105.6L915.952 120.4V150H888.151ZM1072.01 150V37.7999H1028.01V12.7999H1146.21V37.7999H1102.01V150H1072.01ZM1196.32 152.4C1184.85 152.4 1175.12 150.467 1167.12 146.6C1159.12 142.6 1153.05 136.533 1148.92 128.4C1144.78 120.133 1142.72 109.8 1142.72 97.4C1142.72 84.7333 1144.78 74.4 1148.92 66.4C1153.05 58.2666 1159.12 52.2666 1167.12 48.4C1175.12 44.4 1184.85 42.3999 1196.32 42.3999C1208.05 42.3999 1217.85 44.4 1225.72 48.4C1233.72 52.2666 1239.78 58.2666 1243.92 66.4C1248.05 74.4 1250.12 84.7333 1250.12 97.4C1250.12 109.8 1248.05 120.133 1243.92 128.4C1239.78 136.533 1233.72 142.6 1225.72 146.6C1217.85 150.467 1208.05 152.4 1196.32 152.4ZM1196.32 130.8C1202.45 130.8 1207.32 129.667 1210.92 127.4C1214.65 125.133 1217.38 121.667 1219.12 117C1220.85 112.333 1221.72 106.6 1221.72 99.8V95C1221.72 88.2 1220.85 82.4666 1219.12 77.7999C1217.38 73.1333 1214.65 69.6666 1210.92 67.4C1207.32 65 1202.45 63.8 1196.32 63.8C1190.32 63.8 1185.45 65 1181.72 67.4C1178.12 69.6666 1175.45 73.1333 1173.72 77.7999C1171.98 82.4666 1171.12 88.2 1171.12 95V99.8C1171.12 106.6 1171.98 112.333 1173.72 117C1175.45 121.667 1178.12 125.133 1181.72 127.4C1185.45 129.667 1190.32 130.8 1196.32 130.8ZM1287.77 187.6C1283.11 187.6 1278.71 186.6 1274.57 184.6C1270.44 182.733 1267.11 179.933 1264.57 176.2C1262.04 172.467 1260.77 168 1260.77 162.8C1260.77 156.933 1262.44 152.267 1265.77 148.8C1269.24 145.2 1273.11 142.533 1277.37 140.8C1274.31 139.067 1271.77 136.8 1269.77 134C1267.91 131.2 1266.97 127.933 1266.97 124.2C1266.97 119 1268.84 114.8 1272.57 111.6C1276.44 108.267 1280.84 106.133 1285.77 105.2C1280.84 102.133 1276.97 98.2666 1274.17 93.6C1271.51 88.8 1270.17 83.4666 1270.17 77.6C1270.17 70 1272.04 63.6 1275.77 58.4C1279.64 53.2 1285.11 49.2666 1292.17 46.6C1299.37 43.7999 1307.84 42.3999 1317.57 42.3999C1321.44 42.3999 1325.04 42.6 1328.37 43C1331.84 43.4 1334.97 44.0666 1337.77 45C1342.71 42.0666 1346.04 38.8666 1347.77 35.4C1349.64 31.8 1350.64 28.9333 1350.77 26.7999H1376.57C1376.57 31.7333 1375.64 35.9999 1373.77 39.5999C1372.04 43.2 1369.51 46.2 1366.17 48.6C1362.84 50.8666 1358.84 52.5333 1354.17 53.6C1357.64 56.5333 1360.31 60.0666 1362.17 64.2C1364.04 68.3333 1364.97 72.8 1364.97 77.6C1364.97 85.0666 1363.17 91.4666 1359.57 96.8C1355.97 102 1350.84 106 1344.17 108.8C1337.64 111.6 1329.77 113 1320.57 113H1304.57C1301.37 113 1298.97 113.6 1297.37 114.8C1295.77 115.867 1294.97 117.467 1294.97 119.6C1294.97 121.333 1295.64 122.867 1296.97 124.2C1298.44 125.4 1300.77 126 1303.97 126H1347.77C1356.57 126 1363.57 128.733 1368.77 134.2C1374.11 139.533 1376.77 146.4 1376.77 154.8C1376.77 161.2 1375.11 166.867 1371.77 171.8C1368.44 176.733 1363.84 180.6 1357.97 183.4C1352.11 186.2 1345.37 187.6 1337.77 187.6H1287.77ZM1299.37 169H1336.37C1338.77 169 1340.91 168.533 1342.77 167.6C1344.64 166.8 1346.11 165.6 1347.17 164C1348.24 162.533 1348.77 160.8 1348.77 158.8C1348.77 155.333 1347.71 152.733 1345.57 151C1343.44 149.267 1340.77 148.4 1337.57 148.4H1299.37C1296.17 148.4 1293.51 149.333 1291.37 151.2C1289.37 153.067 1288.37 155.533 1288.37 158.6C1288.37 161.667 1289.37 164.133 1291.37 166C1293.51 168 1296.17 169 1299.37 169ZM1317.57 95C1324.11 95 1329.04 93.5333 1332.37 90.6C1335.84 87.5333 1337.57 83.2 1337.57 77.6C1337.57 72 1335.84 67.7333 1332.37 64.8C1329.04 61.7333 1324.11 60.2 1317.57 60.2C1311.17 60.2 1306.24 61.7333 1302.77 64.8C1299.44 67.7333 1297.77 72 1297.77 77.6C1297.77 81.2 1298.51 84.3333 1299.97 87C1301.44 89.6666 1303.64 91.6666 1306.57 93C1309.51 94.3333 1313.17 95 1317.57 95ZM1439.86 152.4C1428.26 152.4 1418.52 150.467 1410.66 146.6C1402.79 142.6 1396.86 136.533 1392.86 128.4C1388.86 120.267 1386.86 109.933 1386.86 97.4C1386.86 84.7333 1388.86 74.4 1392.86 66.4C1396.86 58.2666 1402.72 52.2666 1410.46 48.4C1418.32 44.4 1427.92 42.3999 1439.26 42.3999C1449.92 42.3999 1458.92 44.3333 1466.26 48.2C1473.59 51.9333 1479.12 57.8 1482.86 65.8C1486.59 73.6666 1488.46 83.8666 1488.46 96.4V103.6H1415.06C1415.32 109.733 1416.26 114.933 1417.86 119.2C1419.59 123.467 1422.19 126.667 1425.66 128.8C1429.26 130.8 1433.99 131.8 1439.86 131.8C1443.06 131.8 1445.92 131.4 1448.46 130.6C1451.12 129.8 1453.39 128.6 1455.26 127C1457.12 125.4 1458.59 123.4 1459.66 121C1460.72 118.6 1461.26 115.867 1461.26 112.8H1488.46C1488.46 119.467 1487.26 125.267 1484.86 130.2C1482.46 135.133 1479.12 139.267 1474.86 142.6C1470.59 145.8 1465.46 148.267 1459.46 150C1453.59 151.6 1447.06 152.4 1439.86 152.4ZM1415.46 86H1459.86C1459.86 82 1459.32 78.5333 1458.26 75.6C1457.32 72.6666 1455.99 70.2666 1454.26 68.4C1452.52 66.5333 1450.39 65.2 1447.86 64.4C1445.46 63.4666 1442.72 63 1439.66 63C1434.59 63 1430.32 63.8666 1426.86 65.6C1423.52 67.2 1420.92 69.7333 1419.06 73.2C1417.32 76.5333 1416.12 80.8 1415.46 86ZM1540.25 152.4C1533.59 152.4 1528.19 151.2 1524.05 148.8C1519.92 146.4 1516.92 143.2 1515.05 139.2C1513.19 135.067 1512.25 130.533 1512.25 125.6V66.2H1499.25V44.8H1513.25L1518.45 14.7999H1540.05V44.8H1559.25V66.2H1540.05V121C1540.05 124.2 1540.79 126.667 1542.25 128.4C1543.72 130 1546.12 130.8 1549.45 130.8H1559.25V149.2C1557.65 149.733 1555.79 150.2 1553.65 150.6C1551.52 151.133 1549.25 151.533 1546.85 151.8C1544.45 152.2 1542.25 152.4 1540.25 152.4ZM1577.21 150V5.39995H1605.01V56.4H1606.41C1608.68 53.6 1611.35 51.2 1614.41 49.2C1617.61 47.0666 1621.15 45.4 1625.01 44.2C1629.01 43 1633.35 42.3999 1638.01 42.3999C1644.95 42.3999 1651.01 43.6666 1656.21 46.1999C1661.41 48.7333 1665.41 52.7333 1668.21 58.2C1671.15 63.6666 1672.61 70.8 1672.61 79.6V150H1644.81V84C1644.81 80.6666 1644.41 77.8666 1643.61 75.6C1642.81 73.2 1641.61 71.2666 1640.01 69.8C1638.55 68.2 1636.68 67.0666 1634.41 66.4C1632.15 65.7333 1629.61 65.4 1626.81 65.4C1622.68 65.4 1618.95 66.4 1615.61 68.4C1612.28 70.4 1609.68 73.1333 1607.81 76.6C1605.95 80.0666 1605.01 84.0666 1605.01 88.6V150H1577.21ZM1745.33 152.4C1733.73 152.4 1723.99 150.467 1716.13 146.6C1708.26 142.6 1702.33 136.533 1698.33 128.4C1694.33 120.267 1692.33 109.933 1692.33 97.4C1692.33 84.7333 1694.33 74.4 1698.33 66.4C1702.33 58.2666 1708.19 52.2666 1715.93 48.4C1723.79 44.4 1733.39 42.3999 1744.73 42.3999C1755.39 42.3999 1764.39 44.3333 1771.73 48.2C1779.06 51.9333 1784.59 57.8 1788.33 65.8C1792.06 73.6666 1793.93 83.8666 1793.93 96.4V103.6H1720.53C1720.79 109.733 1721.73 114.933 1723.33 119.2C1725.06 123.467 1727.66 126.667 1731.13 128.8C1734.73 130.8 1739.46 131.8 1745.33 131.8C1748.53 131.8 1751.39 131.4 1753.93 130.6C1756.59 129.8 1758.86 128.6 1760.73 127C1762.59 125.4 1764.06 123.4 1765.13 121C1766.19 118.6 1766.73 115.867 1766.73 112.8H1793.93C1793.93 119.467 1792.73 125.267 1790.33 130.2C1787.93 135.133 1784.59 139.267 1780.33 142.6C1776.06 145.8 1770.93 148.267 1764.93 150C1759.06 151.6 1752.53 152.4 1745.33 152.4ZM1720.93 86H1765.33C1765.33 82 1764.79 78.5333 1763.73 75.6C1762.79 72.6666 1761.46 70.2666 1759.73 68.4C1757.99 66.5333 1755.86 65.2 1753.33 64.4C1750.93 63.4666 1748.19 63 1745.13 63C1740.06 63 1735.79 63.8666 1732.33 65.6C1728.99 67.2 1726.39 69.7333 1724.53 73.2C1722.79 76.5333 1721.59 80.8 1720.93 86ZM1814.32 150V44.8H1837.32L1839.52 61.2H1840.92C1842.26 57.7333 1843.99 54.6 1846.12 51.8C1848.26 48.8666 1850.92 46.5333 1854.12 44.8C1857.32 43.0666 1861.06 42.2 1865.32 42.2C1867.59 42.2 1869.66 42.4666 1871.52 43C1873.39 43.4 1874.79 43.8 1875.72 44.2V69.4H1867.12C1862.99 69.4 1859.32 70 1856.12 71.2C1853.06 72.2666 1850.46 74 1848.32 76.4C1846.19 78.8 1844.59 81.7333 1843.52 85.2C1842.59 88.6666 1842.12 92.7333 1842.12 97.4V150H1814.32ZM1898.9 109.8L1892.1 12.7999H1923.3L1916.3 109.8H1898.9ZM1893.5 150V122H1921.9V150H1893.5Z"/>
</mask>
<path d="M5.19995 150V12.7999H35V124.6H104.2V150H5.19995ZM168.764 152.4C157.164 152.4 147.431 150.467 139.564 146.6C131.697 142.6 125.764 136.533 121.764 128.4C117.764 120.267 115.764 109.933 115.764 97.4C115.764 84.7333 117.764 74.4 121.764 66.4C125.764 58.2666 131.631 52.2666 139.364 48.4C147.231 44.4 156.831 42.3999 168.164 42.3999C178.831 42.3999 187.831 44.3333 195.164 48.2C202.497 51.9333 208.031 57.8 211.764 65.8C215.497 73.6666 217.364 83.8666 217.364 96.4V103.6H143.964C144.231 109.733 145.164 114.933 146.764 119.2C148.497 123.467 151.097 126.667 154.564 128.8C158.164 130.8 162.897 131.8 168.764 131.8C171.964 131.8 174.831 131.4 177.364 130.6C180.031 129.8 182.297 128.6 184.164 127C186.031 125.4 187.497 123.4 188.564 121C189.631 118.6 190.164 115.867 190.164 112.8H217.364C217.364 119.467 216.164 125.267 213.764 130.2C211.364 135.133 208.031 139.267 203.764 142.6C199.497 145.8 194.364 148.267 188.364 150C182.497 151.6 175.964 152.4 168.764 152.4ZM144.364 86H188.764C188.764 82 188.231 78.5333 187.164 75.6C186.231 72.6666 184.897 70.2666 183.164 68.4C181.431 66.5333 179.297 65.2 176.764 64.4C174.364 63.4666 171.631 63 168.564 63C163.497 63 159.231 63.8666 155.764 65.6C152.431 67.2 149.831 69.7333 147.964 73.2C146.231 76.5333 145.031 80.8 144.364 86ZM269.161 152.4C262.494 152.4 257.094 151.2 252.961 148.8C248.828 146.4 245.828 143.2 243.961 139.2C242.094 135.067 241.161 130.533 241.161 125.6V66.2H228.161V44.8H242.161L247.361 14.7999H268.961V44.8H288.161V66.2H268.961V121C268.961 124.2 269.694 126.667 271.161 128.4C272.628 130 275.028 130.8 278.361 130.8H288.161V149.2C286.561 149.733 284.694 150.2 282.561 150.6C280.428 151.133 278.161 151.533 275.761 151.8C273.361 152.2 271.161 152.4 269.161 152.4ZM310.12 69L305.52 42.2V12.7999H332.72V42.2L326.92 69H310.12ZM399.306 152.4C391.973 152.4 385.373 151.6 379.506 150C373.64 148.4 368.64 146.2 364.506 143.4C360.373 140.467 357.173 137 354.906 133C352.773 129 351.706 124.467 351.706 119.4C351.706 118.867 351.706 118.333 351.706 117.8C351.706 117.267 351.773 116.867 351.906 116.6H378.706C378.706 116.867 378.706 117.133 378.706 117.4C378.706 117.667 378.706 117.933 378.706 118.2C378.84 121.533 379.906 124.267 381.906 126.4C383.906 128.4 386.506 129.867 389.706 130.8C393.04 131.733 396.506 132.2 400.106 132.2C403.306 132.2 406.373 131.933 409.306 131.4C412.373 130.733 414.906 129.6 416.906 128C419.04 126.4 420.106 124.333 420.106 121.8C420.106 118.6 418.773 116.133 416.106 114.4C413.573 112.667 410.173 111.267 405.906 110.2C401.773 109.133 397.24 107.933 392.306 106.6C387.773 105.533 383.24 104.333 378.706 103C374.173 101.533 370.04 99.6666 366.306 97.4C362.706 95.1333 359.773 92.2 357.506 88.6C355.24 84.8666 354.106 80.2 354.106 74.6C354.106 69.1333 355.306 64.4 357.706 60.4C360.106 56.2666 363.373 52.8666 367.506 50.2C371.773 47.5333 376.706 45.6 382.306 44.4C388.04 43.0666 394.173 42.3999 400.706 42.3999C406.84 42.3999 412.573 43.0666 417.906 44.4C423.24 45.6 427.906 47.4666 431.906 50C435.906 52.4 439.04 55.4666 441.306 59.2C443.573 62.8 444.706 66.8666 444.706 71.4C444.706 72.3333 444.706 73.2 444.706 74C444.706 74.8 444.64 75.3333 444.506 75.6H417.906V74C417.906 71.6 417.173 69.6 415.706 68C414.24 66.2666 412.106 64.9333 409.306 64C406.64 63.0666 403.373 62.6 399.506 62.6C396.84 62.6 394.373 62.8 392.106 63.2C389.973 63.6 388.106 64.2 386.506 65C384.906 65.8 383.64 66.8 382.706 68C381.906 69.0666 381.506 70.4 381.506 72C381.506 74.2666 382.44 76.1333 384.306 77.6C386.306 78.9333 388.906 80.0666 392.106 81C395.306 81.9333 398.84 82.9333 402.706 84C407.506 85.3333 412.506 86.6666 417.706 88C423.04 89.2 427.973 90.8666 432.506 93C437.04 95.1333 440.706 98.2 443.506 102.2C446.306 106.067 447.706 111.333 447.706 118C447.706 124.4 446.44 129.8 443.906 134.2C441.506 138.6 438.106 142.133 433.706 144.8C429.306 147.467 424.173 149.4 418.306 150.6C412.44 151.8 406.106 152.4 399.306 152.4ZM532.097 150L496.097 12.7999H527.697L547.697 94.6C548.097 95.8 548.497 97.6 548.897 100C549.297 102.267 549.697 104.667 550.097 107.2C550.497 109.733 550.83 112 551.097 114H552.097C552.363 112.533 552.564 110.867 552.697 109C552.964 107.133 553.23 105.333 553.497 103.6C553.897 101.733 554.23 100 554.497 98.4C554.897 96.8 555.163 95.5333 555.297 94.6L573.897 12.7999H609.497L628.497 94.6C628.897 95.9333 629.297 97.7333 629.697 100C630.097 102.267 630.497 104.667 630.897 107.2C631.297 109.733 631.63 112 631.897 114H632.897C633.164 112.533 633.43 110.933 633.697 109.2C634.097 107.467 634.43 105.733 634.697 104C635.097 102.133 635.497 100.4 635.897 98.8C636.297 97.2 636.63 95.8 636.897 94.6L656.697 12.7999H685.297L649.097 150H615.097L594.897 65.6C594.497 63.7333 594.03 61.6 593.497 59.2C593.097 56.6666 592.697 54.2 592.297 51.8C591.897 49.4 591.563 47.2666 591.297 45.4H590.497C590.23 47.2666 589.897 49.4666 589.497 52C589.23 54.5333 588.83 57 588.297 59.4C587.897 61.8 587.497 63.8666 587.097 65.6L567.097 150H532.097ZM737.919 152.4C726.452 152.4 716.719 150.467 708.719 146.6C700.719 142.6 694.652 136.533 690.519 128.4C686.385 120.133 684.319 109.8 684.319 97.4C684.319 84.7333 686.385 74.4 690.519 66.4C694.652 58.2666 700.719 52.2666 708.719 48.4C716.719 44.4 726.452 42.3999 737.919 42.3999C749.652 42.3999 759.452 44.4 767.319 48.4C775.319 52.2666 781.385 58.2666 785.519 66.4C789.652 74.4 791.719 84.7333 791.719 97.4C791.719 109.8 789.652 120.133 785.519 128.4C781.385 136.533 775.319 142.6 767.319 146.6C759.452 150.467 749.652 152.4 737.919 152.4ZM737.919 130.8C744.052 130.8 748.919 129.667 752.519 127.4C756.252 125.133 758.985 121.667 760.719 117C762.452 112.333 763.319 106.6 763.319 99.8V95C763.319 88.2 762.452 82.4666 760.719 77.7999C758.985 73.1333 756.252 69.6666 752.519 67.4C748.919 65 744.052 63.8 737.919 63.8C731.919 63.8 727.052 65 723.319 67.4C719.719 69.6666 717.052 73.1333 715.319 77.7999C713.585 82.4666 712.719 88.2 712.719 95V99.8C712.719 106.6 713.585 112.333 715.319 117C717.052 121.667 719.719 125.133 723.319 127.4C727.052 129.667 731.919 130.8 737.919 130.8ZM812.175 150V44.8H835.175L837.375 61.2H838.775C840.108 57.7333 841.842 54.6 843.975 51.8C846.108 48.8666 848.775 46.5333 851.975 44.8C855.175 43.0666 858.908 42.2 863.175 42.2C865.442 42.2 867.508 42.4666 869.375 43C871.242 43.4 872.642 43.8 873.575 44.2V69.4H864.975C860.842 69.4 857.175 70 853.975 71.2C850.908 72.2666 848.308 74 846.175 76.4C844.042 78.8 842.442 81.7333 841.375 85.2C840.442 88.6666 839.975 92.7333 839.975 97.4V150H812.175ZM888.151 150V5.19995H915.952V88.6L952.752 44.8H985.352L949.352 86L987.151 150H955.352L931.151 105.6L915.952 120.4V150H888.151ZM1072.01 150V37.7999H1028.01V12.7999H1146.21V37.7999H1102.01V150H1072.01ZM1196.32 152.4C1184.85 152.4 1175.12 150.467 1167.12 146.6C1159.12 142.6 1153.05 136.533 1148.92 128.4C1144.78 120.133 1142.72 109.8 1142.72 97.4C1142.72 84.7333 1144.78 74.4 1148.92 66.4C1153.05 58.2666 1159.12 52.2666 1167.12 48.4C1175.12 44.4 1184.85 42.3999 1196.32 42.3999C1208.05 42.3999 1217.85 44.4 1225.72 48.4C1233.72 52.2666 1239.78 58.2666 1243.92 66.4C1248.05 74.4 1250.12 84.7333 1250.12 97.4C1250.12 109.8 1248.05 120.133 1243.92 128.4C1239.78 136.533 1233.72 142.6 1225.72 146.6C1217.85 150.467 1208.05 152.4 1196.32 152.4ZM1196.32 130.8C1202.45 130.8 1207.32 129.667 1210.92 127.4C1214.65 125.133 1217.38 121.667 1219.12 117C1220.85 112.333 1221.72 106.6 1221.72 99.8V95C1221.72 88.2 1220.85 82.4666 1219.12 77.7999C1217.38 73.1333 1214.65 69.6666 1210.92 67.4C1207.32 65 1202.45 63.8 1196.32 63.8C1190.32 63.8 1185.45 65 1181.72 67.4C1178.12 69.6666 1175.45 73.1333 1173.72 77.7999C1171.98 82.4666 1171.12 88.2 1171.12 95V99.8C1171.12 106.6 1171.98 112.333 1173.72 117C1175.45 121.667 1178.12 125.133 1181.72 127.4C1185.45 129.667 1190.32 130.8 1196.32 130.8ZM1287.77 187.6C1283.11 187.6 1278.71 186.6 1274.57 184.6C1270.44 182.733 1267.11 179.933 1264.57 176.2C1262.04 172.467 1260.77 168 1260.77 162.8C1260.77 156.933 1262.44 152.267 1265.77 148.8C1269.24 145.2 1273.11 142.533 1277.37 140.8C1274.31 139.067 1271.77 136.8 1269.77 134C1267.91 131.2 1266.97 127.933 1266.97 124.2C1266.97 119 1268.84 114.8 1272.57 111.6C1276.44 108.267 1280.84 106.133 1285.77 105.2C1280.84 102.133 1276.97 98.2666 1274.17 93.6C1271.51 88.8 1270.17 83.4666 1270.17 77.6C1270.17 70 1272.04 63.6 1275.77 58.4C1279.64 53.2 1285.11 49.2666 1292.17 46.6C1299.37 43.7999 1307.84 42.3999 1317.57 42.3999C1321.44 42.3999 1325.04 42.6 1328.37 43C1331.84 43.4 1334.97 44.0666 1337.77 45C1342.71 42.0666 1346.04 38.8666 1347.77 35.4C1349.64 31.8 1350.64 28.9333 1350.77 26.7999H1376.57C1376.57 31.7333 1375.64 35.9999 1373.77 39.5999C1372.04 43.2 1369.51 46.2 1366.17 48.6C1362.84 50.8666 1358.84 52.5333 1354.17 53.6C1357.64 56.5333 1360.31 60.0666 1362.17 64.2C1364.04 68.3333 1364.97 72.8 1364.97 77.6C1364.97 85.0666 1363.17 91.4666 1359.57 96.8C1355.97 102 1350.84 106 1344.17 108.8C1337.64 111.6 1329.77 113 1320.57 113H1304.57C1301.37 113 1298.97 113.6 1297.37 114.8C1295.77 115.867 1294.97 117.467 1294.97 119.6C1294.97 121.333 1295.64 122.867 1296.97 124.2C1298.44 125.4 1300.77 126 1303.97 126H1347.77C1356.57 126 1363.57 128.733 1368.77 134.2C1374.11 139.533 1376.77 146.4 1376.77 154.8C1376.77 161.2 1375.11 166.867 1371.77 171.8C1368.44 176.733 1363.84 180.6 1357.97 183.4C1352.11 186.2 1345.37 187.6 1337.77 187.6H1287.77ZM1299.37 169H1336.37C1338.77 169 1340.91 168.533 1342.77 167.6C1344.64 166.8 1346.11 165.6 1347.17 164C1348.24 162.533 1348.77 160.8 1348.77 158.8C1348.77 155.333 1347.71 152.733 1345.57 151C1343.44 149.267 1340.77 148.4 1337.57 148.4H1299.37C1296.17 148.4 1293.51 149.333 1291.37 151.2C1289.37 153.067 1288.37 155.533 1288.37 158.6C1288.37 161.667 1289.37 164.133 1291.37 166C1293.51 168 1296.17 169 1299.37 169ZM1317.57 95C1324.11 95 1329.04 93.5333 1332.37 90.6C1335.84 87.5333 1337.57 83.2 1337.57 77.6C1337.57 72 1335.84 67.7333 1332.37 64.8C1329.04 61.7333 1324.11 60.2 1317.57 60.2C1311.17 60.2 1306.24 61.7333 1302.77 64.8C1299.44 67.7333 1297.77 72 1297.77 77.6C1297.77 81.2 1298.51 84.3333 1299.97 87C1301.44 89.6666 1303.64 91.6666 1306.57 93C1309.51 94.3333 1313.17 95 1317.57 95ZM1439.86 152.4C1428.26 152.4 1418.52 150.467 1410.66 146.6C1402.79 142.6 1396.86 136.533 1392.86 128.4C1388.86 120.267 1386.86 109.933 1386.86 97.4C1386.86 84.7333 1388.86 74.4 1392.86 66.4C1396.86 58.2666 1402.72 52.2666 1410.46 48.4C1418.32 44.4 1427.92 42.3999 1439.26 42.3999C1449.92 42.3999 1458.92 44.3333 1466.26 48.2C1473.59 51.9333 1479.12 57.8 1482.86 65.8C1486.59 73.6666 1488.46 83.8666 1488.46 96.4V103.6H1415.06C1415.32 109.733 1416.26 114.933 1417.86 119.2C1419.59 123.467 1422.19 126.667 1425.66 128.8C1429.26 130.8 1433.99 131.8 1439.86 131.8C1443.06 131.8 1445.92 131.4 1448.46 130.6C1451.12 129.8 1453.39 128.6 1455.26 127C1457.12 125.4 1458.59 123.4 1459.66 121C1460.72 118.6 1461.26 115.867 1461.26 112.8H1488.46C1488.46 119.467 1487.26 125.267 1484.86 130.2C1482.46 135.133 1479.12 139.267 1474.86 142.6C1470.59 145.8 1465.46 148.267 1459.46 150C1453.59 151.6 1447.06 152.4 1439.86 152.4ZM1415.46 86H1459.86C1459.86 82 1459.32 78.5333 1458.26 75.6C1457.32 72.6666 1455.99 70.2666 1454.26 68.4C1452.52 66.5333 1450.39 65.2 1447.86 64.4C1445.46 63.4666 1442.72 63 1439.66 63C1434.59 63 1430.32 63.8666 1426.86 65.6C1423.52 67.2 1420.92 69.7333 1419.06 73.2C1417.32 76.5333 1416.12 80.8 1415.46 86ZM1540.25 152.4C1533.59 152.4 1528.19 151.2 1524.05 148.8C1519.92 146.4 1516.92 143.2 1515.05 139.2C1513.19 135.067 1512.25 130.533 1512.25 125.6V66.2H1499.25V44.8H1513.25L1518.45 14.7999H1540.05V44.8H1559.25V66.2H1540.05V121C1540.05 124.2 1540.79 126.667 1542.25 128.4C1543.72 130 1546.12 130.8 1549.45 130.8H1559.25V149.2C1557.65 149.733 1555.79 150.2 1553.65 150.6C1551.52 151.133 1549.25 151.533 1546.85 151.8C1544.45 152.2 1542.25 152.4 1540.25 152.4ZM1577.21 150V5.39995H1605.01V56.4H1606.41C1608.68 53.6 1611.35 51.2 1614.41 49.2C1617.61 47.0666 1621.15 45.4 1625.01 44.2C1629.01 43 1633.35 42.3999 1638.01 42.3999C1644.95 42.3999 1651.01 43.6666 1656.21 46.1999C1661.41 48.7333 1665.41 52.7333 1668.21 58.2C1671.15 63.6666 1672.61 70.8 1672.61 79.6V150H1644.81V84C1644.81 80.6666 1644.41 77.8666 1643.61 75.6C1642.81 73.2 1641.61 71.2666 1640.01 69.8C1638.55 68.2 1636.68 67.0666 1634.41 66.4C1632.15 65.7333 1629.61 65.4 1626.81 65.4C1622.68 65.4 1618.95 66.4 1615.61 68.4C1612.28 70.4 1609.68 73.1333 1607.81 76.6C1605.95 80.0666 1605.01 84.0666 1605.01 88.6V150H1577.21ZM1745.33 152.4C1733.73 152.4 1723.99 150.467 1716.13 146.6C1708.26 142.6 1702.33 136.533 1698.33 128.4C1694.33 120.267 1692.33 109.933 1692.33 97.4C1692.33 84.7333 1694.33 74.4 1698.33 66.4C1702.33 58.2666 1708.19 52.2666 1715.93 48.4C1723.79 44.4 1733.39 42.3999 1744.73 42.3999C1755.39 42.3999 1764.39 44.3333 1771.73 48.2C1779.06 51.9333 1784.59 57.8 1788.33 65.8C1792.06 73.6666 1793.93 83.8666 1793.93 96.4V103.6H1720.53C1720.79 109.733 1721.73 114.933 1723.33 119.2C1725.06 123.467 1727.66 126.667 1731.13 128.8C1734.73 130.8 1739.46 131.8 1745.33 131.8C1748.53 131.8 1751.39 131.4 1753.93 130.6C1756.59 129.8 1758.86 128.6 1760.73 127C1762.59 125.4 1764.06 123.4 1765.13 121C1766.19 118.6 1766.73 115.867 1766.73 112.8H1793.93C1793.93 119.467 1792.73 125.267 1790.33 130.2C1787.93 135.133 1784.59 139.267 1780.33 142.6C1776.06 145.8 1770.93 148.267 1764.93 150C1759.06 151.6 1752.53 152.4 1745.33 152.4ZM1720.93 86H1765.33C1765.33 82 1764.79 78.5333 1763.73 75.6C1762.79 72.6666 1761.46 70.2666 1759.73 68.4C1757.99 66.5333 1755.86 65.2 1753.33 64.4C1750.93 63.4666 1748.19 63 1745.13 63C1740.06 63 1735.79 63.8666 1732.33 65.6C1728.99 67.2 1726.39 69.7333 1724.53 73.2C1722.79 76.5333 1721.59 80.8 1720.93 86ZM1814.32 150V44.8H1837.32L1839.52 61.2H1840.92C1842.26 57.7333 1843.99 54.6 1846.12 51.8C1848.26 48.8666 1850.92 46.5333 1854.12 44.8C1857.32 43.0666 1861.06 42.2 1865.32 42.2C1867.59 42.2 1869.66 42.4666 1871.52 43C1873.39 43.4 1874.79 43.8 1875.72 44.2V69.4H1867.12C1862.99 69.4 1859.32 70 1856.12 71.2C1853.06 72.2666 1850.46 74 1848.32 76.4C1846.19 78.8 1844.59 81.7333 1843.52 85.2C1842.59 88.6666 1842.12 92.7333 1842.12 97.4V150H1814.32ZM1898.9 109.8L1892.1 12.7999H1923.3L1916.3 109.8H1898.9ZM1893.5 150V122H1921.9V150H1893.5Z" stroke="black" stroke-opacity="0.3" stroke-width="10" mask="url(#path-1-outside-1_2_3)"/>
</svg>
